<?xml version="1.0" encoding="UTF-8" standalone="no"?>
<!DOCTYPE svg PUBLIC "-//W3C//DTD SVG 1.1//EN" "http://www.w3.org/Graphics/SVG/1.1/DTD/svg11.dtd">
<svg width="100%" height="100%" viewBox="0 0 1442 1269" version="1.1" xmlns="http://www.w3.org/2000/svg" xmlns:xlink="http://www.w3.org/1999/xlink" xml:space="preserve" xmlns:serif="http://www.serif.com/" style="fill-rule:evenodd;clip-rule:evenodd;stroke-linejoin:round;stroke-miterlimit:2;">
    <g id="Background" transform="matrix(2.75,0,0,2.75,-689,-148)">
        <path d="M266.36,352.5C266.426,339.038 266.395,179.316 266.411,174.499C266.67,97.171 264.496,91.281 270.3,83.356C278.525,72.125 285.572,74.414 327.499,74.398C458.166,74.386 588.832,74.375 719.498,74.363C732.077,74.314 755.819,70.379 757.822,96.479C758.018,99.036 757.839,365.136 757.823,388.498C757.812,405.469 759.919,421.237 740.386,427.106C736.563,428.254 736.473,427.802 690.501,427.742C599.576,427.623 330.809,427.774 321.499,427.726C286.093,427.544 285.694,428.525 277.475,424.546C273.207,422.48 268.654,415.405 267.553,411.483C266.277,406.939 266.092,406.276 266.36,352.5Z" style="fill:rgb(29,92,108);"/>
        <path d="M270.114,360.495C270.087,276.494 270.06,192.493 270.033,108.491C270.041,100.468 266.969,80.228 284.551,77.906C292.151,76.902 416.984,77.469 428.5,77.522C461.7,77.673 626.506,77.475 639.499,77.579C739.233,78.376 740.749,75.138 748.258,81.78C754.934,87.684 753.917,88.965 754.04,128.503C754.278,204.875 753.847,204.863 753.958,211.502C754.173,224.427 754.053,381.796 753.848,383.542C753.56,385.998 750.498,385.455 736.5,385.448C725.139,385.442 595.425,385.379 594.485,385.43C591.13,385.613 596.439,400.381 589.16,412.318C581.01,425.682 569.75,424.733 547.5,424.683C453.775,424.474 453.47,425.386 446.533,422.421C425.998,413.643 432.056,386.964 430.376,385.737C429.409,385.03 275.921,385.742 271.533,385.326C269.843,385.166 270.088,384.278 270.114,360.495Z" style="fill:rgb(36,48,50);"/>
        <path d="M513.707,320.864C513.576,321.07 511.831,321.745 511.69,321.825C503.296,326.59 494.802,323.763 492.334,317.569C485.682,300.877 511.781,285.268 518.248,281.131C541.392,266.325 534.464,253.712 531.077,250.976C517.053,239.646 501.06,257.561 486.361,266.255C463.605,279.715 457.581,261.697 464.371,253.395C477.182,237.73 499.566,243.862 528.525,238.632C559.909,232.964 566.228,209.154 554.232,200.871C538.87,190.262 521.134,209.161 511.131,216.017C509.477,217.15 492.784,228.592 486.48,220.517C474.699,205.428 508.81,196.678 516.017,187.146C528.226,171 507.353,164.377 506.92,168.618C506.73,170.481 516.531,168.554 517.273,176.521C518.367,188.273 501.557,192.246 489.184,201.096C475.607,210.809 482.714,221.339 482.717,221.343C495.012,238.329 523.654,211.558 525.856,209.948C546.498,194.85 555.692,206.094 554.59,213.509C551.316,235.549 507.719,235.222 492.481,236.194C454.229,238.632 450.429,265.737 461.786,273.105C478.766,284.12 497.752,262.759 511.735,254.926C519.641,250.497 527.574,251.432 529.566,256.472C534.289,268.421 514.005,277.052 500.535,289.538C472.599,315.434 497.766,336.373 514.292,322.464C515.489,321.969 525.91,317.247 526.751,316.914C536.424,313.081 549.997,304.07 551.452,302.438C551.624,302.245 558.138,295.548 560.42,293.421C562.618,291.371 580.382,272.268 580.754,273.261C581.095,274.169 580.877,377.439 580.858,386.498C580.847,391.983 583.503,409.863 568.498,412.489C564.164,413.247 564.135,412.918 513.499,412.754C457.904,412.574 454.726,413.681 450.379,410.699C442.839,405.528 443.162,403.989 443.243,367.499C443.44,278.654 442.752,149.192 443.685,144.533C446.005,132.952 457.945,132.897 459.517,132.89C469.524,132.844 471.305,132.041 472.119,135.573C474.623,146.445 478.864,145.186 494.5,145.19C545.037,145.202 545.076,144.974 546.428,144.338C554.182,140.69 549.208,132.924 555.504,132.875C561.041,132.832 576.644,130.649 580.128,143.585C581.721,149.498 580.428,220.897 580.912,228.53C581.077,231.123 580.423,231.051 572.872,238.819C561.503,250.515 553.291,259.238 552.833,259.729C544.354,268.825 539.429,273.884 536.804,276.736C529.982,284.149 528.423,283.474 521.186,301.382C517.588,310.283 513.961,320.465 513.707,320.864Z" style="fill:rgb(26,91,108);"/>
        <path d="M566.611,439.219C571.159,466.969 568.959,472.036 584.354,478.849C597.431,484.636 597.515,484.706 598.467,485.514L597.273,486.266C580.033,485.981 447.467,486.173 441.511,486.144C427.806,486.077 427.639,487.106 426.7,486.384C426.351,486.116 426.38,485.513 426.031,485.245C428.681,483.53 438.624,479.859 446.545,475.584C457.181,469.845 459.015,439.074 459.015,439.074L566.611,439.219Z" style="fill:rgb(27,91,108);"/>
        <path d="M736.849,140.517C736.217,124.606 737.835,99.698 735.584,98.396C733.522,97.204 733.361,97.854 669.501,97.785C639.11,97.752 291.043,97.374 289.618,97.893C287.115,98.806 287.638,99.806 287.579,132.5C287.547,149.94 287.385,239.284 287.646,350.498C287.671,361.347 285.845,364.445 292.5,364.541C297.08,364.608 318.142,364.393 328.512,364.566C329.166,364.623 329.819,364.68 330.473,364.736C331.592,364.671 337.489,364.324 344.479,364.676C346.958,364.542 429.612,364.323 430.387,364.714C435.068,367.079 425.012,367.08 424.505,367.08C413.787,367.081 291.191,367.096 290.534,367.046C282.901,366.465 285.477,361.733 284.973,334.501C284.694,319.462 285.015,128.426 285.046,110.506C285.063,100.08 283.467,95.258 292.499,95.222C437.165,95.223 581.831,95.223 726.497,95.224C733.521,95.224 739.147,93.837 739.221,102.501C739.263,107.368 739.275,359.605 739.149,361.479C738.697,368.148 735.089,367.106 707.495,367.107C698.463,367.107 594.78,367.11 594.598,367.058C593.203,366.662 592.17,364.625 595.504,364.558C608.41,364.3 612.993,364.555 614.512,364.64C623.952,364.39 629.24,364.602 630.519,364.653C631.512,364.627 632.504,364.602 633.496,364.577C641.012,364.678 640.975,364.459 648.501,364.514L650.514,364.679C657.579,364.066 733.547,365.232 735.27,364.065C737.264,362.713 736.501,357.994 736.775,351.464C736.792,350.823 736.809,350.181 736.827,349.54C736.687,342.202 736.637,147.261 736.849,140.517Z" style="fill:rgb(152,128,90);"/>
        <path d="M513.625,320.864C513.847,321.276 514.07,322.052 514.292,322.464C497.766,336.373 472.599,315.434 500.535,289.538C514.005,277.052 534.289,268.421 529.566,256.472C527.574,251.432 519.641,250.497 511.735,254.926C497.752,262.759 478.766,284.12 461.786,273.105C450.429,265.737 454.229,238.632 492.481,236.194C507.719,235.222 551.316,235.549 554.59,213.509C555.692,206.094 546.498,194.85 525.856,209.948C523.654,211.558 495.012,238.329 482.717,221.343C482.714,221.339 475.607,210.809 489.184,201.096C501.557,192.246 518.367,188.273 517.273,176.521C516.531,168.554 506.73,170.481 506.92,168.618C507.353,164.377 528.226,171 516.017,187.146C508.81,196.678 474.699,205.428 486.48,220.517C492.784,228.592 509.477,217.15 511.131,216.017C521.134,209.161 538.87,190.262 554.232,200.871C566.228,209.154 559.909,232.964 528.525,238.632C499.566,243.862 477.182,237.73 464.371,253.395C457.581,261.697 463.605,279.715 486.361,266.255C501.06,257.561 517.053,239.646 531.077,250.976C534.464,253.712 541.392,266.325 518.248,281.131C511.781,285.268 485.682,300.877 492.334,317.569C494.802,323.763 503.296,326.59 511.69,321.825C511.831,321.745 511.834,321.781 513.625,320.864Z" style="fill:rgb(243,247,245);"/>
        <path d="M432.915,215.502C433.254,207.62 432.376,152.692 433.276,143.477C433.916,136.91 439.397,126.148 451.566,123.875C459.999,122.299 549.774,123.598 561.515,123.154C563.494,123.079 578.492,122.511 585.024,130.891C595.317,144.093 590.406,153.98 591.249,219.402C590.62,221.403 590.678,221.417 590.57,221.563C590.541,221.602 588.586,222.32 588.567,222.3C588.389,222.105 588.458,218.804 588.464,218.499C588.599,211.942 588.569,180.78 588.566,177.5C588.538,147.739 590.768,135.434 576.204,127.963C571.384,125.491 561.39,125.594 559.624,125.887C558.184,126.125 460.996,125.603 454.457,126.184C444.011,127.112 436.47,136.436 435.857,145.54C435.289,153.985 435.354,154.745 435.422,155.544C436.315,166.046 435.667,295.34 435.606,307.497C435.569,314.855 435.178,392.934 435.837,399.483C437.166,412.703 447.461,419.19 455.545,420.074C460.776,420.646 518.059,420.265 523.495,420.229C568.732,419.928 568.904,420.755 573.301,419.052C588.628,413.117 588.341,398.902 588.68,395.56C588.698,395.386 588.884,393.544 590.559,394.443C592.384,395.424 590.95,420.679 568.485,422.322C560.747,422.889 560.76,422.557 471.5,422.496C461.827,422.49 443.481,424.855 436.203,409.601C431.617,399.991 433.773,399.418 432.929,333.5C432.701,315.679 433.233,219.979 432.915,215.502Z" style="fill:rgb(42,94,106);"/>
        <path d="M698.904,137.204C696.47,137.158 696.247,136.821 694.611,138.591C676.983,157.658 638.234,198.028 638.175,198.115C637.817,198.647 637.645,199.288 637.287,199.819C631.821,194.113 631.847,194.168 625.804,189.155C623.213,187.005 624.593,186.342 626.926,183.907C628.435,182.33 628.386,182.358 629.848,180.803C634.104,176.276 681.12,126.273 683.611,124.744C686.257,123.119 697.85,136.03 698.904,137.204Z" style="fill:rgb(192,159,116);"/>
        <path d="M363.335,272.157C360.601,271.233 362.774,269.522 361.45,268.64C361.318,268.552 359.057,268.593 358.771,268.834C358.03,269.458 358.726,278.508 348.308,284.1C342.825,287.044 333.589,284.324 333.466,284.405C333.032,284.689 329.053,294.988 322.492,295.166C308.524,295.544 308.284,295.439 307.611,294.455C306.201,292.394 307.446,285.172 307.583,284.378C301.438,282.923 290.417,284.796 289.653,283.306C289.54,283.087 289.798,282.83 289.806,282.584C289.847,281.381 290.332,281.684 291.512,281.686C305.11,281.707 307.065,281.734 308.418,281.752C317.034,281.77 317.654,282.781 324.406,277.42C326.916,275.427 322.9,273.39 323.579,266.511C325.442,247.627 352.449,243.873 357.765,263.37C358.244,265.128 358.369,266.324 359.539,266.376C372.398,266.939 372.392,265.526 373.464,265.832C375.282,266.349 374.772,268.402 373.501,268.508C372.944,268.554 372.975,268.181 366.517,268.591C365.416,268.66 365.005,269.416 364.934,269.545C364.182,270.926 364.324,270.969 363.335,272.157Z" style="fill:rgb(138,112,81);"/>
        <path d="M594.872,246.376C590.991,246.839 591.634,248.009 588.362,251.33C586.811,252.903 586.919,252.967 569.492,271.494C568.329,272.73 568.217,272.575 554.683,286.678C549.591,291.984 549.866,292.17 544.623,297.345C537.638,289.366 536.784,290.257 532.041,285.858C535.376,280.742 562.308,253.571 577.908,236.892C580.617,233.995 581.115,232.309 584.089,234.965C592.121,242.136 594.188,245.322 594.872,246.376Z" style="fill:rgb(193,159,116);"/>
        <path d="M432.499,492.866C431.947,492.864 426.647,493.006 425.487,492.526C424.423,492.085 423.749,490.36 424.117,489.369C424.601,488.07 425.174,488.689 444.501,488.595C456.821,488.536 585.585,487.912 598.506,488.488C600.454,488.575 600.089,491.771 598.497,492.495C596.797,493.27 506.612,492.743 432.499,492.866Z" style="fill:rgb(32,93,110);"/>
        <path d="M626.462,209.517C626.3,209.826 627.073,210.155 626.91,210.464C626.818,210.64 626.572,210.316 624.887,211.907C623.559,213.161 596.432,241.569 595.416,242.667C590.012,236.818 586.67,234.469 584.705,232.371C582.753,230.286 584.83,230.135 591.677,222.665C599.146,214.515 599.268,214.65 599.881,213.913C600.032,213.74 601.391,212.177 601.787,211.773C610.805,202.564 613.337,199.358 614.654,198.889C615.983,198.417 623.139,204.949 626.462,209.517Z" style="fill:rgb(184,131,67);"/>
        <path d="M356.564,267.498C356.085,271.067 356.038,277.448 347.33,282.278C344.82,283.67 336.522,284.658 332.284,280.896C332.225,280.843 326.531,277.324 325.77,269.472C324.047,251.704 352.275,243.089 356.564,267.498Z" style="fill:rgb(60,45,29);"/>
        <path d="M698.904,137.204C701.529,140.45 701.378,140.492 702.218,142.44C701.528,143.646 701.652,143.684 700.718,144.696C683.974,162.849 658.586,189.1 654.885,192.926C650.569,197.389 642.721,205.967 642.297,206.02C641.664,206.1 641.803,205.772 637.287,199.819C637.645,199.288 637.817,198.647 638.175,198.115C638.234,198.028 676.983,157.658 694.611,138.591C696.247,136.821 696.47,137.158 698.904,137.204Z" style="fill:rgb(151,118,82);"/>
        <path d="M358.49,100.498C360.004,99.971 359.999,99.867 360.122,99.93C360.476,100.113 375.321,114.609 376.195,115.756C378.401,118.65 376.616,150.807 377.412,154.507C377.934,156.934 398.545,176.481 401.295,179.656C404.01,182.791 401.676,211.282 402.895,214.217C405.336,220.098 404.963,212.711 404.953,212.497C404.834,210.154 405.032,180.831 404.649,179.455C404.247,178.008 384.212,159.05 382.057,155.948C379.555,152.345 381.004,124.537 380.483,117.501C380.132,112.765 366.041,102.641 366.42,100.467C366.817,98.183 371.818,103.406 372.186,103.791C379.188,111.105 381.539,113.559 382.162,114.699C383.297,116.777 382.551,149.977 383.336,153.523C383.968,156.375 404.855,175.729 406.281,177.685C407.852,179.839 406.853,205.098 407.24,217.559C407.431,223.685 424.221,220.307 428.637,221.275C429.507,221.466 430.418,223.3 427.478,223.349C408.454,223.667 406.934,223.714 401.687,216.377C399.143,212.819 401.177,187.493 400.329,182.533C399.952,180.33 378.431,160.237 376.195,156.888C373.757,153.235 375.397,132.081 374.86,119.5C374.633,114.173 361.41,106.505 358.49,100.498Z" style="fill:rgb(136,108,78);"/>
        <path d="M328.512,364.566C329.142,361.497 329.384,361.521 336.16,355.04C338.852,352.465 338.608,352.234 369.359,322.395C372.295,319.546 368.277,303.874 371.822,299.769C373.287,298.073 391.358,279.957 393.067,278.244C394.443,276.864 391.868,275.848 389.809,277.775C385.103,282.179 384.946,283.047 371.106,296.057C363.096,303.586 345.045,323.742 342.492,324.462C339.59,325.281 302.98,324.112 300.391,325.297C298.179,326.309 289.251,337.684 289.527,333.504C289.604,332.336 298.156,322.773 301.506,322.664C310.592,322.37 340.985,322.906 342.249,322.164C343.472,321.446 386.964,276.159 390.587,274.908C391.645,274.543 430.001,274.49 430.408,274.702C432.103,275.583 431.449,276.672 429.534,276.708C414.525,276.986 414.579,276.332 399.525,276.752C395.797,276.856 396.287,278.203 375.75,298.73C371.365,303.113 372.64,303.914 372.617,319.498C372.61,323.87 370.805,323.114 355.175,339.191C350.331,344.173 342.692,351.545 341.593,352.606C333.692,360.231 334.098,360.631 331.554,362.564C330.477,363.382 330.492,363.35 330.442,363.452C330.131,364.077 330.783,364.114 330.473,364.736C329.819,364.68 329.166,364.623 328.512,364.566Z" style="fill:rgb(141,115,85);"/>
        <path d="M337.639,255.912C353.272,252.982 357.87,271.307 348.325,278.283C333.572,289.065 318.188,264.11 337.639,255.912Z" style="fill:rgb(179,131,67);"/>
        <path d="M594.872,246.376C597.198,250.771 597.578,251.474 594.108,255.082C590.618,258.712 552.022,298.851 550.362,300.35C548.982,301.597 548.595,302.04 547.396,300.629C544.864,297.65 544.874,297.677 544.623,297.345C549.866,292.17 549.591,291.984 554.683,286.678C568.217,272.575 568.329,272.73 569.492,271.494C586.919,252.967 586.811,252.903 588.362,251.33C591.634,248.009 590.991,246.839 594.872,246.376Z" style="fill:rgb(153,120,82);"/>
        <path d="M713.538,295.504C713.865,295.503 714.174,295.691 714.5,295.69C715.667,295.687 714.873,291.489 714.949,289.457C715,288.096 715.305,287.186 712.499,287.223C708.333,287.279 665.277,287.85 660.416,286.79C659.138,286.511 658.971,286.581 643.655,271.37C635.122,262.895 635.73,261.417 631.504,261.387C595.566,261.134 590.924,262.738 593.686,259.661C594.073,259.229 594.177,259.206 627.507,259.18C634.542,259.174 634.919,259.19 639.803,264.226C645.262,269.856 658.798,283.465 659.696,284.027C662.443,285.744 706.59,284.245 715.43,285.1C716.788,285.231 716.74,284.659 732.475,284.8C736.295,284.834 733.974,287.073 733.398,287.135C731.603,287.328 717.991,287.029 717.489,287.488C717.09,287.853 717.296,293.935 717.27,294.497C717.142,297.235 716.781,297.451 718.661,299.393C718.207,300.017 717.753,300.64 717.3,301.264C717.635,316.844 716.282,317.831 720.681,322.332C724.517,326.256 729.688,330.979 726.518,330.792C726.076,330.766 715.91,322.417 715.361,317.514C714.644,311.105 715.302,301.871 715.398,300.515C715.586,297.877 713.712,297.165 713.262,296.757L713.538,295.504Z" style="fill:rgb(130,105,76);"/>
        <path d="M591.426,285.495C591.191,291.576 591.322,395.515 590.978,397.694C590.933,397.974 588.873,396.561 588.727,396.37C588.652,396.271 588.373,392.254 588.522,346.5C588.517,327.167 588.513,307.834 588.508,288.5C588.502,267.29 588.305,267.325 588.305,265.484C588.304,263.071 591.252,260.453 591.409,262.535C591.564,264.595 591.438,283.658 591.426,285.495Z" style="fill:rgb(43,97,108);"/>
        <path d="M530.802,287.97C531.066,287.868 537.723,293.027 541.112,296.866C546.178,302.604 546.5,303.565 544.601,304.668C543.113,305.532 526.643,315.098 525.492,314.555C525.04,314.341 525.398,313.938 520.909,310.315C520.584,308.355 520.553,308.306 522.388,304.441C523.023,303.105 530.078,288.249 530.802,287.97Z" style="fill:rgb(154,154,150);"/>
        <path d="M334.48,237.492C335.236,238.532 335.247,238.516 335.297,238.615C335.536,239.087 335.254,239.121 335.473,239.554C324.694,245.933 315.293,254.374 311.221,257.155C308.482,259.025 309.476,260.23 309.347,269.506C309.31,272.161 310.437,271.419 311.496,271.404C314.904,271.353 316.485,272.888 316.723,269.524C316.794,268.531 316.8,267.533 316.899,266.542C318.371,251.917 331.989,244.319 333.938,246.193C336.152,248.322 326.611,248.067 321.632,258.542C316.822,268.662 322.062,273.184 315.497,273.533C311.715,273.734 309.848,270.648 309.306,274.422C308.946,276.93 309.343,276.993 308.266,279.304C291.03,278.995 290.875,279.494 290.154,278.814C287.877,276.666 293.294,276.719 302.505,276.918C306.108,276.996 307.904,277.439 307.093,273.887C306.982,273.402 304.163,273.546 292.5,273.501C290.748,273.495 289.922,274.213 289.881,272.473C289.876,272.249 289.609,272.012 289.723,271.818C290.281,270.874 305.617,271.454 306.441,271.394C307.709,271.302 307.066,270.572 307.21,260.475C307.713,225.354 307.541,225.216 307.946,224.87C309.621,223.439 309.577,228.185 309.574,228.504C309.555,230.587 309.343,253.795 309.426,254.542C309.693,256.952 310.574,253.757 334.48,237.492Z" style="fill:rgb(144,116,84);"/>
        <path d="M373.259,193.669C371.124,190.627 369.524,190.139 365.805,186.24C360.406,180.581 359.847,179.109 354.499,178.93C334.139,178.249 324.603,181.028 317.705,175.125C315.946,173.619 314.176,174.049 311.448,171.564C307.289,167.777 290.456,151.159 289.832,150.166C289.725,149.995 289.36,146.552 292.303,149.673C296.839,154.485 305.422,163.016 312.429,169.58C315.95,172.879 316.529,171.989 316.65,171.633C316.908,170.873 316.89,155.968 316.159,154.625C313.596,149.916 291.408,132.127 296.494,131.847C297.133,131.812 304.495,139.648 304.902,140.05C305.148,140.294 305.122,140.271 307.972,143.115C310.062,145.2 318.332,151.907 318.594,155.496C319.412,166.697 318.385,173.148 319.858,174.111C326.34,178.344 335.052,176.203 355.49,176.758C362.355,176.944 361.17,179.652 374.562,191.435C377.165,193.725 386.591,191.826 386.745,194.469C386.872,196.644 385.754,195.874 383.692,195.238C383.229,195.123 382.765,195.007 382.301,194.892C378.877,194.823 378.918,194.817 375.469,194.452C374.732,194.191 373.996,193.93 373.259,193.669Z" style="fill:rgb(132,108,81);"/>
        <path d="M302.46,220.391C300.659,221.732 298.111,224.729 295.585,221.445C293.478,218.706 297.324,213.593 300.832,217.011C302.59,218.724 303.004,218.028 331.495,218.084C351.139,218.123 351.749,217.54 354.17,219.843C356.056,221.635 355.818,221.814 377.303,242.695C379.582,244.91 379.98,244.508 404.5,244.491C430.454,244.474 431.15,244.402 431.15,245.522C431.151,247.073 430.157,246.678 402.499,246.697C378.977,246.713 378.495,247.098 375.685,244.308C355.018,223.794 352.2,220.59 350.513,220.404C349.994,220.346 306.705,220.147 302.46,220.391Z" style="fill:rgb(139,113,84);"/>
        <path d="M322.5,211.586C307.041,211.618 306.39,212.37 302.549,208.46C292.033,197.754 289.717,197.249 289.642,194.561C289.559,191.585 291.196,194.596 300.928,204.056C306.433,209.409 307.756,209.424 308.498,209.433C324.147,209.618 353.403,208.74 355.698,210.233C357.951,211.699 381.236,235.992 383.473,236.573C385.808,237.179 427.414,236.101 428.822,237.297C431.003,239.15 423.015,239.126 422.487,239.125C385.587,239.017 385.504,239.621 382.446,238.666C379.463,237.735 355.931,212.12 353.464,211.679C352.68,211.538 352.673,211.606 322.5,211.586Z" style="fill:rgb(136,112,83);"/>
        <path d="M716.377,205.408C716.375,206.133 716.373,206.857 716.371,207.581C711.067,207.158 699.733,207.591 699.68,207.638C698.591,208.606 700.665,245.025 697.815,250.635C695.187,255.808 695.769,249.87 695.842,249.712C696.119,249.116 696.952,247.32 697.013,241.576C697.046,238.58 697.381,210.716 697.167,208.624C697.013,207.12 694.04,207.488 691.503,207.552C688.292,207.634 688.69,208.713 675.845,220.852C664.895,231.199 664.094,234.936 657.509,234.931C618.138,234.9 615.921,235.477 616.924,233.362C617.581,231.977 654.128,233.07 659.509,232.638C661.717,232.461 662.768,230.58 675.852,217.85C688.128,205.908 688.116,205.351 691.493,205.328C693.484,205.314 711.797,205.188 716.377,205.408Z" style="fill:rgb(135,109,82);"/>
        <path d="M626.462,209.517C629.354,213.19 629.904,214.183 630.149,214.623C631.125,216.385 629.669,217.41 628.582,218.577C603.253,245.749 602.843,245.316 600.699,247.728C598.791,249.875 598.559,247.699 595.416,242.667C596.432,241.569 623.559,213.161 624.887,211.907C626.572,210.316 626.818,210.64 626.91,210.464C627.073,210.155 626.3,209.826 626.462,209.517Z" style="fill:rgb(133,91,52);"/>
        <path d="M290.596,296.753C293.994,296.596 350.353,296.911 353.503,296.515C354.783,296.355 354.846,296.24 375.085,276.085C383.673,267.532 383.663,266.717 389.5,266.715C430.471,266.697 430.579,266.505 431.02,266.887C433.888,269.367 428.892,268.856 399.507,268.868C386.417,268.873 386.018,268.525 383.177,271.179C381.73,272.53 369.161,284.272 365.548,288.542C363.416,291.061 356.559,297.729 355.412,298.299C352.742,299.626 334.37,299.064 332.54,299.008C313.385,298.421 290.47,299.659 289.803,298.24C289.719,298.061 289.921,297.827 289.837,297.648C290.09,297.349 290.343,297.051 290.596,296.753Z" style="fill:rgb(133,107,78);"/>
        <path d="M331.411,199.674C355.201,199.932 355.967,199.107 360.473,203.529C375.374,218.152 379.387,222.357 380.989,224.037C386.133,229.428 387.761,229.46 388.503,229.474C389.692,229.496 403.098,229.752 403.374,229.411C403.879,228.785 403.271,228.706 384.571,210.42C384.031,209.893 378.055,204.049 379.373,202.556C379.742,202.138 380.529,202.287 380.898,201.869L381.289,201.482C381.959,205.694 382.717,205.42 388.669,211.341C393.291,215.94 396.303,218.338 403.885,226.135C406.606,228.934 406.562,229.428 410.501,229.478C421.089,229.615 431.897,228.79 428.449,231.44C427.582,232.106 406.85,231.334 403.496,231.585C402.858,231.633 388.117,231.831 386.51,231.428C383.941,230.784 372.421,217.81 367.4,213.603C362.452,209.456 358.718,202.454 353.487,202.272C342.214,201.879 338.947,202.494 331.682,201.692C331.592,201.019 331.501,200.346 331.411,199.674Z" style="fill:rgb(129,104,77);"/>
        <path d="M734.399,277.664C734.398,279.147 734.48,279.166 734.398,279.264C733.842,279.925 688.489,279.605 684.496,279.577C681.383,279.555 681.403,279.124 669.192,269.94C667.631,268.766 652.205,257.165 649.517,255.476C644.6,252.387 644.121,253.988 601.473,253.853C601.282,253.852 592.83,252.738 600.533,251.653C601.747,251.482 645.77,251.556 646.493,251.618C650.261,251.945 679.521,275.72 682.6,277.202C684.195,277.97 728.893,276.702 734.399,277.664Z" style="fill:rgb(140,115,86);"/>
        <path d="M593.363,275.497C593.94,275.043 593.741,274.562 595.506,274.542C599.505,274.495 599.467,274.523 603.498,274.562C628.113,274.801 628.563,273.99 630.839,276.082C632.841,277.923 648.793,292.589 655.326,299.66C658.018,302.574 657.624,303.043 657.613,331.499C657.611,335.468 656.117,336.451 661.839,342.142C677.927,358.145 685.161,364.214 679.419,362.596C679.4,362.591 657.144,340.727 656.43,339.557C653.721,335.118 656.97,306.619 654.64,302.412C653.807,300.907 631.898,279.771 629.402,277.613C626.997,275.534 600.687,277.633 593.689,276.33L593.363,275.497Z" style="fill:rgb(139,115,87);"/>
        <path d="M702.119,219.546C702.929,219.569 703.74,219.593 704.55,219.617C703.851,223.978 704.319,233.053 704.632,233.303C705.6,234.078 733.678,232.909 734.358,233.686C734.522,233.873 734.512,235.125 734.36,235.276C733.64,235.995 705.389,235.52 704.728,235.884C703.978,236.296 704.219,245.003 704.603,245.371C705.405,246.141 733.833,245.308 734.365,245.8C734.416,245.848 734.452,247.303 734.402,247.373C733.746,248.281 705.854,247.75 704.636,247.963C704.313,248.019 702.412,249.881 704.173,251.714C711.247,259.081 711.78,259.057 712.676,259.017C715.099,258.909 717.104,258.934 717.489,258.938C734.336,259.143 734.373,259.427 734.452,259.558C734.478,259.601 734.408,261.113 734.38,261.134C733.562,261.76 733.481,261.336 721.511,261.22C700.517,261.016 699.993,261.551 699.638,260.454C699.019,258.538 705.553,259.128 706.442,259.129C712.534,259.133 699.49,254.444 701.543,248.511C702.817,244.829 701.967,244.716 702.119,219.546Z" style="fill:rgb(130,106,79);"/>
        <path d="M392.962,105.519C392.964,105.41 392.569,98.236 394.754,100.19C395.899,101.214 394.731,147.76 395.346,150.542C395.778,152.496 413.788,168.593 415.567,171.453C418.235,175.739 416.072,204.194 416.751,209.444C416.997,211.351 423.871,210.326 429.484,210.591C431.507,210.687 430.515,212.436 430.474,212.475C430.202,212.735 418.079,212.737 416.5,212.531C413.824,212.184 414.598,210.128 414.632,183.501C414.642,175.73 416.181,174.836 410.684,169.307C406.676,165.276 406.606,165.416 402.615,161.391C399.109,157.856 399.095,157.968 395.51,154.49C391.411,150.511 393.395,149.551 392.962,105.519Z" style="fill:rgb(130,105,77);"/>
        <path d="M336.288,362.46C339.569,358.288 363.994,333.891 366.443,331.445C375.607,322.291 375.797,322.27 375.901,320.516C376.664,307.661 373.205,305.186 379.23,299.211C395.4,283.171 396.78,280.385 400.516,280.258C402.964,280.174 430.405,279.24 431.132,280.633C432.187,282.655 430.767,282.485 428.499,282.395C415.851,281.891 399.936,281.997 398.785,282.796C398.227,283.182 378.806,302.342 378.409,303.456C377.149,306.999 379.925,322.043 376.541,324.554C372.084,327.863 339.66,362.301 338.61,362.621C338.432,362.675 338.438,362.609 336.288,362.46Z" style="fill:rgb(128,103,75);"/>
        <path d="M713.538,295.504L713.262,296.757C711.021,294.789 709.846,294.561 709.502,294.494C707.839,294.171 678.215,294.335 675.494,294.35C657.235,294.451 656.484,295.36 652.621,291.395C650.928,289.657 633.01,271.267 631.227,269.898C628.562,267.852 596.903,269.44 594.319,268.884C593.606,268.73 591.808,266.707 595.504,266.685C627.965,266.492 627.982,266.245 630.651,267.13C633.137,267.955 649.887,286.035 655.658,291.27C657.098,292.577 657.366,292.243 675.509,292.15C706.868,291.988 712.991,291.646 713.591,294.406C713.669,294.764 713.461,295.146 713.538,295.504Z" style="fill:rgb(143,117,87);"/>
        <path d="M411.848,215.444C411.734,216.268 411.62,217.093 411.506,217.917C411.235,217.676 410.783,217.719 410.513,217.478C408.583,215.76 410.136,184.895 409.605,178.494C409.142,172.92 387.985,157.459 386.709,153.451C386.042,151.356 386.214,117.613 386.23,114.497C386.248,110.94 383.571,109.72 375.79,102.217C375.655,102.086 373.097,99.62 375.553,99.877C376.656,99.993 377.074,100.036 386.056,108.938C389.87,112.718 387.958,113.618 388.592,150.5C388.655,154.145 389.588,153.844 393.885,158.064C407.383,171.322 407.446,171.221 408.592,172.398C413.992,177.945 410.998,180.941 411.848,215.444Z" style="fill:rgb(146,119,90);"/>
        <path d="M735.172,159.142C734.196,160.429 725.859,169.792 723.493,170.464C718.64,171.841 703.283,168.986 699.426,172.42C687.049,183.441 653.713,218.744 651.451,219.305C650.135,219.631 650.135,219.565 634.5,219.495C631.034,219.48 632.825,217.611 633.488,217.465C636.651,216.765 649.843,218.506 652.273,216.256C652.334,216.199 682.917,185.274 685.582,182.58C699.3,168.708 700.753,168.681 702.506,168.648C721.804,168.288 722.217,169.205 724.308,167.289C728.215,163.707 728.1,163.659 731.797,159.819C733.383,158.171 734.005,157.16 735.172,159.142Z" style="fill:rgb(144,120,92);"/>
        <path d="M568.382,255.381C569.541,254.123 570.765,252.386 573.591,250.648C577.228,248.412 584.467,251.681 576.28,260.314C562.711,274.624 560.059,277.844 556.657,275.267C551.015,270.994 559.676,265.081 568.382,255.381Z" style="fill:rgb(18,56,71);"/>
        <path d="M343.5,363.26C343.499,362.932 342.792,362.905 342.79,362.577C342.789,362.083 342.977,362.134 354.043,351.099C356.218,348.93 380.057,325.159 380.956,323.732C382.489,321.298 379.217,306.74 382.901,302.865C398.3,286.672 399.317,286.082 401.078,285.062C403.586,283.608 425.79,283.993 426.046,284.743C426.743,286.786 424.941,285.86 405.496,286.382C401.195,286.497 401.366,287.321 396.364,292.35C385.814,302.957 383.445,304.304 383.406,307.497C383.24,321.248 384.939,323.267 380.524,327.523C358.047,349.183 346.537,361.936 345.508,362.507C344.883,362.854 344.125,362.913 343.5,363.26Z" style="fill:rgb(138,111,82);"/>
        <path d="M716.377,205.408C716.704,201.826 716.739,201.838 715.829,198.395C715.627,197.628 716.378,197.645 716.371,188.5C716.364,179.022 716.533,178.915 716.194,178.615C715.556,178.049 715.408,178.692 705.532,178.645C702.492,178.631 700.756,180.024 701.28,177.398C701.821,174.693 724.172,178.894 728.027,175.085C728.722,174.398 736.299,165.895 734.437,171.456C734.291,171.893 728.61,177.923 726.495,178.475C724.963,178.875 718.853,178.566 718.784,178.598C718.714,178.631 717.765,193.69 719.325,195.655C721.433,198.309 719.04,199.425 718.884,200.773C718.841,201.15 718.35,205.396 719.523,205.478C720.56,205.55 720.529,204.981 732.512,205.227C732.699,205.231 741.134,206.378 733.466,207.364C731.376,207.633 721.526,207.426 720.488,207.404C718.751,207.368 718.672,207.78 718.683,209.495C718.707,213.321 717.948,213.601 720.274,216.656C721.848,218.724 719.889,225.663 714.855,220.17C713.537,218.732 705.372,219.536 704.55,219.617C703.74,219.593 702.929,219.569 702.119,219.546C702.533,218.432 701.857,217.213 705.493,217.156C708.332,217.112 713.966,217.525 714.817,216.927C717.537,215.013 716.448,210.182 716.371,207.581C716.373,206.857 716.375,206.133 716.377,205.408Z" style="fill:rgb(153,124,87);"/>
        <path d="M325.371,228.666C330.803,229.179 348.802,228.712 350.417,228.964C355.103,229.694 367.322,245.635 374.253,250.869C376.365,252.465 416.246,251.326 429.478,251.652C431.712,251.707 431.174,253.516 430.666,253.713C429.603,254.126 376.06,253.903 375.485,253.817C370.942,253.132 354.01,232.576 351.457,231.602C348.86,230.61 327.468,231.281 325.383,231.346C325.383,231.343 326.28,230.475 325.937,229.129C325.832,228.72 325.472,229.062 325.371,228.666Z" style="fill:rgb(129,104,76);"/>
        <path d="M593.326,283.491C593.971,282.991 593.788,282.553 595.501,282.547C614.055,282.489 614.313,282.865 616.136,284.842C617.786,286.631 623.737,293.085 637.376,306.618C642.352,311.556 645.103,312.84 645.313,317.519C646.264,338.671 644.063,342.999 647.036,345.897C654.104,352.788 662.5,361.233 662.591,361.455C664.761,366.75 656.02,357.9 655.565,357.44C643.782,345.511 643.456,345.51 643.297,343.518C643.04,340.278 644.16,317.429 642.296,314.644C640.536,312.014 639.949,312.57 614.58,286.423C612.591,284.373 611.724,284.81 602.494,284.688C599.378,284.647 593.983,284.696 593.64,284.36C593.421,284.144 593.546,283.707 593.326,283.491Z" style="fill:rgb(145,120,93);"/>
        <path d="M593.603,289.437C593.642,289.11 593.365,288.797 593.404,288.471C593.539,287.338 598.756,287.624 603.501,287.603C608.988,287.579 609.48,286.792 613.459,290.543C613.461,290.545 618.146,294.478 634.672,311.331C638.611,315.348 640.244,315.072 640.305,319.5C640.723,349.866 639.439,350.561 642.106,352.823C642.685,353.315 652.217,362.416 652.122,362.708C652.059,362.901 652.003,362.853 650.514,364.679L648.501,364.514C649.04,363.304 649.816,363.139 648.782,362.288C646.826,360.677 641.056,354.166 640.502,354.506C640.396,354.572 640.92,361.968 640.372,362.436C640.324,362.477 638.703,362.468 638.659,362.427C638.145,361.939 638.7,352.666 638.673,352.473C638.116,348.561 638.156,348.569 638.187,332.493C638.215,318.274 638.569,317.821 636.241,315.763C633.202,313.078 616.173,295.484 610.409,290.61C607.979,288.555 600.228,290.646 593.603,289.437Z" style="fill:rgb(143,118,90);"/>
        <path d="M350.571,361.557C359.546,353.184 369.919,342.268 371.555,340.545C383.116,328.379 386.403,326.77 386.544,324.504C387.119,315.238 384.839,308.612 388.833,304.861C395.548,298.556 395.254,298.329 401.929,291.948C405.737,288.308 406.113,288.676 412.503,288.665C430.006,288.636 430.028,288.479 430.38,288.682C435.251,291.496 422.229,290.614 409.506,290.76C403.883,290.824 404.634,292.776 391.9,304.915C387.454,309.153 388.761,309.973 388.748,321.508C388.74,327.818 387.394,327.458 382.898,331.916C376.894,337.871 371.004,343.859 369.977,344.905C354.289,360.857 354.845,361.757 350.5,363.271C350.524,362.7 350.547,362.128 350.571,361.557Z" style="fill:rgb(136,110,80);"/>
        <path d="M620.512,190.514C620.923,190.321 621.168,189.863 621.579,189.67C622.245,189.356 622.974,189.013 629.225,194.806C641.713,206.382 640.105,208.165 639.167,209.205C634.388,214.505 633.066,214.945 631.592,212.437C628.572,207.3 620.037,199.259 618.634,198.342C614.258,195.479 616.926,194.265 620.512,190.514Z" style="fill:rgb(151,152,148);"/>
        <path d="M289.565,154.645C289.965,154.79 290.292,154.182 291.598,155.381C299.089,162.255 306.806,172.24 315.75,178.054C318.259,179.685 318.234,179.734 319.79,182.286C321.99,185.892 346.985,181.09 351.626,185.355C354,187.537 353.944,187.521 380.225,213.764C382.905,216.44 380.258,216.709 379.635,216.313C378.197,215.398 351.094,186.82 348.418,185.976C346.436,185.351 321.367,186.29 319.592,185.288C317.117,183.891 318.851,181.817 312.446,178.598C310.372,177.555 310.396,177.475 291.55,158.454C289.992,156.882 290.126,156.807 289.565,154.645Z" style="fill:rgb(143,118,90);"/>
        <path d="M647.707,148.7C657.223,138.727 659.598,136.285 670.592,125.593C675.934,120.396 680.874,121.975 681.357,122.619C683.062,124.889 678.014,124.016 675.377,125.298C674.217,125.862 662.09,137.201 644.446,156.448C635.139,166.601 636.07,167.28 635.409,169.476C633.197,176.826 623.492,177.892 624.721,174.591C625.146,173.449 644.114,152.565 647.707,148.7Z" style="fill:rgb(154,154,152);"/>
        <path d="M688.787,238.069C689.166,238.789 692.354,244.85 689.849,248.186C687.791,250.926 686.838,252.083 684.499,252.595C680.53,253.463 678.011,251.708 674.703,248.497C674.24,246.504 674.599,246.367 673.265,244.894L672.535,243.484C674.024,242.301 674.041,242.341 674.737,240.594C674.799,240.439 675.221,239.379 675.762,238.765C681.438,232.312 687.965,237.426 688.787,238.069Z" style="fill:rgb(133,109,81);"/>
        <path d="M406.042,127.915C404.82,126.668 402.208,124.483 404.709,121.742C407.501,118.682 412.477,123.029 409.465,126.473C407.717,128.472 408.152,128.743 408.15,140.501C408.15,144.924 407.676,145.41 411.791,149.217C422.431,159.062 422.487,160.189 422.552,161.493C422.863,167.741 422.277,202.806 422.94,203.364C423.221,203.601 423.301,202.962 427.54,203.37C429.554,203.564 429.496,205.276 427.488,205.442C421.177,205.964 420.738,204.031 420.612,203.472C420.158,201.471 420.921,161.827 420.189,160.573C419.693,159.722 408.695,149.276 407.679,148.311C406.579,147.266 405.138,147.066 406.042,127.915Z" style="fill:rgb(139,114,87);"/>
        <path d="M396.506,320.495C396.227,321.236 395.948,321.976 395.668,322.717C393.903,327.671 392.326,329.316 381.327,340.317C369.799,351.845 369.843,351.855 368.834,352.848C359.254,362.283 359.2,363.859 357.436,362.502C356.452,361.745 381.605,337.102 388.27,330.295C394.405,324.03 393.513,323.28 393.695,314.506C393.716,313.49 393.755,311.603 401.407,304.412C408.305,297.93 407.644,295.653 415.485,295.987C425.028,296.393 430.657,295.417 431.073,296.643C431.841,298.9 425.006,298.249 412.497,298.254C409.425,298.255 409.86,299.291 403.489,305.488C395.796,312.972 394.421,313.751 396.506,320.495Z" style="fill:rgb(134,109,81);"/>
        <path d="M701.574,200.395C701.467,200.316 701.362,199.852 700.468,199.567C699.275,199.187 685.632,199.376 685.48,199.398C681.646,199.96 659.888,224.802 656.437,226.343C653.641,227.591 625.919,227.104 625.266,226.913C624.638,226.729 623.504,224.773 627.504,224.758C654.176,224.657 654.785,225.488 657.66,222.652C659.189,221.144 659.064,221.113 660.582,219.575C662.17,217.967 675.911,204.053 680.684,199.732C686.157,194.777 695.373,197.923 700.384,197.16C700.625,197.124 702.807,194.647 704.516,194.833C708.89,195.31 706.592,199.971 706.385,200.392C706.226,200.012 705.709,199.86 705.55,199.48C704.745,197.546 705.285,196.207 703.395,196.948C703.041,197.087 702.761,198.347 702.732,198.477C702.359,200.153 701.771,200.069 701.574,200.395Z" style="fill:rgb(129,105,80);"/>
        <path d="M629.646,99.8C629.887,99.914 630.86,99.225 630.931,101.443C630.936,101.59 630.918,141.308 630.916,141.498C630.849,149.41 629.353,149.089 623.739,154.714C616.305,162.164 616.507,162.408 616.43,163.493C616.244,166.112 616.372,185.585 616.385,187.506C616.387,187.869 616.422,193.101 614.405,191.582C614.241,191.459 613.477,163.376 614.944,160.778C616.988,157.158 628.564,149.245 628.656,144.505C628.8,137.195 628.603,105.845 628.78,100.572C629.068,100.315 629.357,100.058 629.646,99.8Z" style="fill:rgb(149,121,89);"/>
        <path d="M309.239,284.204C316.292,283.451 316.878,285.371 322.48,281.471C325.389,279.445 325.726,277.238 328.129,279.839C330.22,282.101 331.962,281.736 330.766,284.555C330.45,285.301 328.885,288.99 324.54,292.554C324.282,292.765 324.303,293.29 311.487,293.269C309.904,293.266 309.4,293.347 309.355,291.527C309.34,290.941 309.405,290.946 309.239,284.204Z" style="fill:rgb(51,43,37);"/>
        <path d="M630.519,364.653C630.6,363.122 630.42,363.138 630.388,345.493C630.341,320.182 630.432,320.01 629.345,318.628C628.127,317.079 609.345,298.194 607.564,296.437C603.179,292.112 593.448,296.318 593.271,293.516C593.215,292.615 593.543,291.636 604.504,292.439C608.101,292.702 610.004,295.911 629.507,315.493C633.501,319.503 632.421,320.301 632.666,346.494C632.806,361.496 632.078,361.665 633.496,364.577C632.504,364.602 631.512,364.627 630.519,364.653Z" style="fill:rgb(156,129,98);"/>
        <path d="M324.5,330.683C342.322,330.694 343.2,330.794 344.203,330.084C346.51,328.449 346.108,328.098 348.174,326.185C363.752,311.763 362.773,310.023 364.583,310.277C368.091,310.768 354.927,322.39 346.672,330.655C343.316,334.015 341.225,332.612 305.488,332.883C300.885,332.918 298.048,338.783 291.289,345.207C289.869,346.556 288.818,345.433 289.796,343.74C290.993,341.669 299.566,333.324 300.455,332.458C302.636,330.335 303.054,330.756 324.5,330.683Z" style="fill:rgb(146,119,90);"/>
        <path d="M609.384,133.634C608.56,132.646 608.26,132.799 608.151,131.523C607.707,126.319 617.333,128.462 613.423,133.433C612.092,135.126 612.732,135.365 612.582,143.501C612.488,148.591 605.439,152.289 603.642,155.539C602.622,157.383 604.466,197.057 602.569,200.54C601.104,203.23 594.368,202.774 594.914,200.57C594.94,200.463 599.762,200.239 600.477,199.475C601.992,197.856 600.795,164.37 601.228,156.486C601.45,152.449 609.772,147.452 610.403,144.471C610.674,143.192 610.451,134.683 610.418,134.599C610.248,134.159 609.553,134.074 609.384,133.634Z" style="fill:rgb(148,119,86);"/>
        <path d="M704.448,140.348C691.315,123.722 687.549,124.244 686.653,122.483C686.208,121.606 688.816,119.481 690.622,118.908C696.161,117.152 707.756,130.103 707.568,134.507C707.434,137.645 705.465,139.813 705.133,140.179C704.975,140.353 704.606,140.174 704.448,140.348Z" style="fill:rgb(159,129,93);"/>
        <path d="M400.366,322.319C401.026,322.738 401.685,323.157 402.344,323.576C405.522,328.379 407.292,326.55 410.942,331.028C411.628,331.87 412.757,333.256 412.185,344.546C412.074,346.735 413.204,346.37 413.645,348.464C414.665,353.309 405.797,352.484 408.678,347.607C409.781,345.74 409.793,345.749 409.851,343.525C410.127,332.99 410.015,332.253 407.422,330.587C405.457,329.325 403.415,327.14 402.784,327.891C402.748,327.933 402.997,338.106 402.541,340.51C402.108,342.792 401.627,342.638 382.595,361.6C381.172,363.018 378.82,363.102 379.484,361.493C379.5,361.454 389.632,351.393 390.516,350.515C398.722,342.366 400.553,342.965 400.592,336.502C400.652,326.662 400.864,326.592 400.039,324.66C400.148,323.88 400.257,323.099 400.366,322.319Z" style="fill:rgb(144,114,81);"/>
        <path d="M672.535,243.484L673.265,244.894C655.281,244.798 655.402,246.555 633.498,246.628C609.936,246.707 602.478,247.117 606.591,244.788C607.487,244.282 640.659,245.081 668.537,242.685C671.913,242.394 668.991,238.808 675.763,233.788C680.105,230.569 687.345,232.655 683.73,233.727C681.278,234.454 679.992,233.114 676.167,236.06C672.199,239.115 672.364,241.584 672.535,243.484Z" style="fill:rgb(140,115,86);"/>
        <path d="M714.273,120.434C713.999,121.056 712.575,124.291 709.351,127.355C706.971,129.618 707.194,126.645 699.296,119.708C696.576,117.319 698.731,116.872 701.396,114.394C709.867,106.517 715.053,114.188 714.273,120.434Z" style="fill:rgb(156,155,150);"/>
        <path d="M714.665,159.746C714.534,160.416 714.404,161.085 714.274,161.754C706.114,162.797 699.186,160.532 696.545,163.548C692.954,167.651 667.434,192.333 664.875,194.808C659.523,199.985 652.809,208.155 652.542,204.501C652.465,203.447 653.062,203.71 665.777,190.776C668.074,188.439 668.132,188.551 695.042,162.117C697.975,159.236 698.464,159.71 714.665,159.746Z" style="fill:rgb(130,107,79);"/>
        <path d="M736.827,349.54C736.809,350.181 736.792,350.823 736.775,351.464C736.294,351.346 735.8,351.873 735.319,351.755C734.123,351.461 733.282,350.441 709.307,326.72C699.97,317.483 697.424,315.889 697.422,312.499C697.421,311.166 697.452,309.833 697.465,308.5C697.494,305.604 696.913,305.763 695.904,304.148C692.548,298.773 703.418,297.475 701.22,303.414C700.279,305.957 699.697,305.787 699.641,308.508C699.54,313.445 699.201,313.828 702.763,317.248C705.671,320.041 733.707,347.69 734.377,348.622C735.213,349.787 735.406,349.435 736.827,349.54Z" style="fill:rgb(150,123,95);"/>
        <path d="M685.173,309.992C685.088,315.108 685.013,315.069 685.184,320.188C684.936,320.317 684.856,321.179 682.499,321.081C672.761,320.68 672.426,321.167 671.871,320.117C671.704,319.803 671.687,309.959 671.746,309.871C671.983,309.517 681.217,308.319 685.173,309.992Z" style="fill:rgb(176,128,71);"/>
        <path d="M361.068,258.457L362.672,258.005L363.451,258.56C363.876,258.757 364.302,258.953 364.727,259.149C366.578,259.124 429.294,258.933 430.573,259.382C431.523,259.715 431.185,261.239 431.07,261.298C431.01,261.328 365.977,261.505 363.511,261.098C361.239,260.722 361.249,258.932 361.068,258.457Z" style="fill:rgb(127,104,77);"/>
        <path d="M624.911,338.169C630.102,346.978 622.011,344.847 621.378,343.581C620.339,341.502 621.474,340.497 622.691,338.63C623.03,338.109 622.815,338.112 622.753,337.544C621.935,330.049 623.259,330.066 622.617,322.488C622.414,320.088 621.731,320.335 606.301,304.711C601.199,299.545 593.915,303.928 593.362,301.562C592.84,299.326 597.368,300.073 598.496,300.035C607.164,299.743 606.483,302.277 619.862,315.143C625.619,320.68 625.565,321.386 624.911,338.169Z" style="fill:rgb(146,117,83);"/>
        <path d="M339.288,165.506C339.005,169.212 337.461,167.817 337.366,167.61C336.35,165.392 338.355,155.664 335.478,153.528C335.028,153.194 316.077,135.031 315.44,133.523C314.431,131.137 314.942,110.614 315.175,110.261C319.429,103.802 315.245,130.432 318.317,133.674C327.816,143.697 328.058,143.399 338.128,152.898C339.5,154.193 339.222,158.163 339.288,165.506Z" style="fill:rgb(128,103,76);"/>
        <path d="M294.503,310.253C290.913,310.172 290.781,310.503 290.124,309.865C289.22,308.988 290.141,308.268 290.247,308.185C291.012,307.586 328.763,308.016 334.525,307.906C337.518,307.849 336.919,305.466 339.495,305.594C344.96,305.866 341.744,315.985 336.824,311.12C335.935,310.241 335.762,310.234 294.503,310.253Z" style="fill:rgb(130,103,73);"/>
        <path d="M614.684,362.436C614.156,355.511 614.918,329.947 614.206,328.617C614.195,328.596 598.424,311.073 595.519,310.441C591.636,309.597 594.136,308.194 594.338,308.161C598.762,307.436 605.183,316.584 612.522,323.478C618.02,328.644 616.684,329.872 616.737,341.49C616.783,351.482 617.014,362.147 616.539,362.52C616.422,362.612 616.404,362.514 614.684,362.436Z" style="fill:rgb(146,121,89);"/>
        <path d="M290.597,356.595C291.901,355.241 301.305,345.479 307.245,340.011C309.265,338.151 309.779,337.679 341.505,337.919C344.569,337.942 344.778,339.146 343.873,339.874C342.728,340.796 312.554,340.003 310.493,340.466C308.129,340.997 292.165,358.951 290.543,359.605C286.326,361.307 290.435,356.774 290.597,356.595Z" style="fill:rgb(130,104,79);"/>
        <path d="M685.344,250.22C673.194,254.108 673.707,236.128 683.484,237.567C687.83,238.206 688.574,241.903 688.687,242.463C689.837,248.177 685.356,250.211 685.344,250.22Z" style="fill:rgb(51,40,29);"/>
        <path d="M354.5,159.573C358.274,159.93 357.842,161.886 357.627,166.504C357.464,170.006 353.671,169.106 346.506,169.069C344.522,169.059 342.614,169.068 343.621,161.514C343.97,158.896 348.208,159.596 354.5,159.573Z" style="fill:rgb(172,125,67);"/>
        <path d="M691.51,269.629C694.935,269.579 733.391,269.008 734.336,269.843C734.41,269.909 734.474,271.28 734.404,271.375C733.641,272.395 733.314,271.802 718.497,271.716C688.564,271.542 686.508,272.283 686.418,270.471C686.382,269.735 691.097,269.638 691.51,269.629Z" style="fill:rgb(134,108,78);"/>
        <path d="M734.696,141.539C733.146,143.949 722.709,154.185 720.544,154.83C718.711,155.376 704.553,154.713 702.424,155.335C698.704,156.423 700.626,153.419 701.341,153.128C704.29,151.923 719.029,154.047 721.616,151.629C730.463,143.363 734.443,138.818 734.604,140.247C734.652,140.676 734.648,141.11 734.696,141.539Z" style="fill:rgb(129,106,79);"/>
        <path d="M400.366,322.319C400.38,317.413 400.135,317.096 403.595,313.587C413.316,303.73 414.273,303.701 415.513,303.663C430.371,303.211 430.705,303.413 431.224,304.56C432.296,306.932 416.424,305.183 414.569,305.993C413.657,306.391 413.85,306.571 405.623,314.634C402.027,318.158 402.439,318.551 402.344,323.576C401.685,323.157 401.026,322.738 400.366,322.319Z" style="fill:rgb(133,109,82);"/>
        <path d="M688.787,238.069C688.804,238.064 690.404,236.843 691.559,238.438C697.992,247.313 686.452,260.044 677.633,254.307C671.313,250.197 674.534,248.807 674.703,248.497C678.011,251.708 680.53,253.463 684.499,252.595C686.838,252.083 687.791,250.926 689.849,248.186C692.354,244.85 689.166,238.789 688.787,238.069Z" style="fill:rgb(101,76,51);"/>
        <path d="M363.297,274.535C357.993,294.914 336.3,293.882 336.3,291.486C336.3,288.52 351.143,294.794 359.859,277.674C359.99,277.417 360.992,275.448 361.441,274.439C362.151,272.844 362.73,274.216 363.297,274.535Z" style="fill:rgb(149,119,81);"/>
        <path d="M289.513,167.559C293.14,169.187 293.072,169.348 295.534,172.469C298.488,176.215 315.352,190.362 311.407,191.011C310.324,191.189 301.776,181.186 296.446,176.554C296.019,176.184 296.102,176.112 291.45,171.557C288.728,168.892 289.601,167.955 289.513,167.559Z" style="fill:rgb(132,107,82);"/>
        <path d="M377.5,177.425C377.246,177.673 376.729,176.887 376.475,177.135C376.159,177.443 376.582,178.041 376.439,178.459C376.3,178.867 375.807,179.088 375.668,179.496C375.453,179.231 375.586,178.78 375.371,178.515C374.627,177.596 373.939,178.358 364.481,168.52C361.473,165.391 362.69,157.274 363.347,157.189C366.542,156.781 363.011,163.956 366.557,167.447C375.044,175.8 376.144,176.415 377.5,177.425Z" style="fill:rgb(137,111,81);"/>
        <path d="M718.661,299.393C719.1,299.759 735.169,314.791 735.084,316.649C734.892,320.856 722.203,304.336 717.3,301.264C717.753,300.64 718.207,300.017 718.661,299.393Z" style="fill:rgb(152,126,97);"/>
        <path d="M671.516,304.113C671.263,304.097 668.893,303.942 668.365,303.694C667.221,303.154 667.509,301.693 667.545,301.51C667.961,299.399 678.957,299.422 679.619,301.446C680.867,305.262 673.694,304.141 671.516,304.113Z" style="fill:rgb(160,119,71);"/>
        <path d="M342.235,138.262C345.963,136.153 356.976,137.446 357.289,137.719C357.676,138.057 358.61,140.211 355.487,140.25C353.865,140.271 343.735,140.247 343.577,140.152C342.916,139.753 342.897,138.661 342.235,138.262Z" style="fill:rgb(173,131,82);"/>
        <path d="M685.173,309.992C687.324,309.392 687.304,309.325 687.496,309.345C689.213,309.515 688.908,312.459 688.864,318.515C688.832,322.777 685.321,320.229 685.184,320.188C685.013,315.069 685.088,315.108 685.173,309.992Z" style="fill:rgb(112,85,55);"/>
        <path d="M321.277,192.536C320.74,201.143 310.951,194.41 315.421,190.405C318.906,187.281 321.072,192.082 321.277,192.536Z" style="fill:rgb(134,110,83);"/>
        <path d="M361.068,258.457C355.515,248.97 348.545,248.604 348.319,247.574C347.431,243.52 360.706,249.914 362.672,258.005L361.068,258.457Z" style="fill:rgb(139,115,84);"/>
        <path d="M411.848,215.444C412.353,215.634 412.174,216.112 413.578,216.094C414.858,216.078 427.303,215.922 429.583,216.338C430.771,216.555 430.46,217.428 430.523,217.507C430.518,217.509 429.736,218.329 428.45,218.34C414.929,218.462 412.845,218.13 411.506,217.917C411.62,217.093 411.734,216.268 411.848,215.444Z" style="fill:rgb(112,91,66);"/>
        <path d="M350.499,144.579C350.684,144.58 355.935,144.256 356.937,145.216C357.125,145.396 358.853,147.336 354.493,147.37C348.741,147.413 343.157,147.902 343.82,145.624C344.232,144.213 350.082,144.585 350.499,144.579Z" style="fill:rgb(168,128,84);"/>
        <path d="M325.371,228.666C325.472,229.062 325.832,228.72 325.937,229.129C326.28,230.475 325.383,231.343 325.383,231.346C319.192,236.438 316.56,227.864 321.554,226.81C322.403,226.631 323.394,227.014 325.371,228.666Z" style="fill:rgb(174,129,68);"/>
        <path d="M347.497,154.053C344.433,153.688 344.249,153.979 343.916,153.266C343.835,153.094 343.137,151.602 345.498,151.49C357.158,150.938 357.481,151.51 357.588,152.474C357.788,154.291 355.124,153.901 347.497,154.053Z" style="fill:rgb(154,119,78);"/>
        <path d="M377.5,177.425C385.929,177.871 380.826,184.878 377.636,183.186C375.406,182.002 375.693,179.717 375.668,179.496C375.807,179.088 376.3,178.867 376.439,178.459C376.582,178.041 376.159,177.443 376.475,177.135C376.729,176.887 377.246,177.673 377.5,177.425Z" style="fill:rgb(174,126,70);"/>
        <path d="M347.502,130.633C347.191,130.631 343.904,130.607 343.628,130.341C341.748,128.528 346.226,128.478 346.5,128.475C350.811,128.427 359.713,128.014 357.258,130.252C356.723,130.741 351.766,130.624 347.502,130.633Z" style="fill:rgb(143,116,88);"/>
        <path d="M334.48,237.492C335.942,235.225 335.796,234.484 338.461,234.766C339.992,234.927 341.537,236.645 340.761,238.607C339.606,241.531 335.861,239.739 335.473,239.554C335.254,239.121 335.536,239.087 335.297,238.615C335.247,238.516 335.236,238.532 334.48,237.492Z" style="fill:rgb(170,127,70);"/>
        <path d="M685.304,243.559C684.946,250.77 677.807,245.879 679.911,242.787C680.925,241.295 682.247,241.274 682.486,241.27C684.477,241.238 684.222,241.823 685.304,243.559Z" style="fill:rgb(165,125,70);"/>
        <path d="M331.411,199.674C331.501,200.346 331.592,201.019 331.682,201.692C331.058,202.123 327.403,205.299 325.934,202.317C324.686,199.785 326.766,197.34 329.407,198.693C330.428,199.215 330.386,199.172 331.411,199.674Z" style="fill:rgb(160,122,78);"/>
        <path d="M519.546,312.569C520.124,312.878 520.292,312.522 521.436,313.578C524.403,316.318 521.793,316.814 519.751,317.98C515.764,320.256 516.819,316.252 519.546,312.569Z" style="fill:rgb(168,168,164);"/>
        <path d="M342.235,138.262C341.565,140.371 341.651,140.407 341.512,140.538C341.453,140.593 341.48,140.568 340.509,140.544C338.984,140.506 333.455,140.556 333.212,139.654C332.293,136.232 340.617,138.218 342.235,138.262Z" style="fill:rgb(170,129,85);"/>
        <path d="M685.506,267.188C683.804,267.017 683.487,267.393 683.323,266.651C682.922,264.83 683.656,264.799 685.489,264.902C689.741,265.143 694.004,264.649 693.727,266.592C693.598,267.495 686.324,267.19 685.506,267.188Z" style="fill:rgb(106,88,66);"/>
        <path d="M372.893,192.825C373.616,193.21 374.339,192.869 375.062,193.254C375.665,193.566 375.889,198.143 376.554,198.202C379.895,198.501 380.663,198.224 381.289,201.482C381.559,202.891 380.171,205.142 380.171,205.142C378.061,202.402 379.904,200.191 376.482,200.706C373.755,201.116 373.423,195.637 372.893,192.825Z" style="fill:rgb(129,105,74);"/>
        <path d="M667.806,312.503C667.815,312.23 667.928,308.979 669.493,309.53C670.367,309.838 669.81,318.903 669.76,319.716C669.753,319.836 669.663,321.298 668.49,320.516C667.525,319.873 667.808,313.904 667.806,312.503Z" style="fill:rgb(145,118,86);"/>
        <path d="M697.437,256.444C693.503,260.396 692.924,259.73 692.665,259.365C691.912,258.304 697.029,253.877 697.49,253.478C698.591,252.526 698.718,251.765 699.221,252.604C699.652,253.324 699.392,254.12 697.437,256.444Z" style="fill:rgb(103,84,63);"/>
        <path d="M603.773,207.298C603.302,207.539 603.185,208.57 599.504,208.597C599.159,208.599 595.314,208.627 595.337,207.491C595.354,206.707 600.17,205.141 603.773,207.298Z" style="fill:rgb(126,109,84);"/>
        <path d="M685.279,301.396C689.515,297.127 690.381,304.181 687.498,304.487C685.141,304.738 685.468,303.755 685.279,301.396Z" style="fill:rgb(178,139,93);"/>
        <path d="M714.665,159.746C717.369,158.783 718.903,157.626 718.795,160.502C718.681,163.549 714.622,161.896 714.274,161.754C714.404,161.085 714.534,160.416 714.665,159.746Z" style="fill:rgb(162,129,84);"/>
        <path d="M396.506,320.495C398.375,321.609 398.212,321.935 400.366,322.319C400.257,323.099 400.148,323.88 400.039,324.66C397.678,324.08 397.843,323.772 395.668,322.717C395.948,321.976 396.227,321.236 396.506,320.495Z" style="fill:rgb(109,87,60);"/>
        <path d="M669.595,329.873C667.794,329.263 667.045,329.367 667.586,327.534C667.852,326.632 669.367,326.061 670.281,326.778C671.884,328.034 671.007,328.427 669.595,329.873Z" style="fill:rgb(170,131,85);"/>
        <path d="M678.476,326.57C678.668,326.736 681.24,328.95 678.606,329.733C677.295,330.122 673.172,327.447 678.476,326.57Z" style="fill:rgb(158,122,80);"/>
        <path d="M364.386,133.107C362.253,132.516 361.081,132.244 362.534,130.53C362.896,130.103 364.424,129.608 365.313,130.637C366.364,131.855 365.378,131.865 364.386,133.107Z" style="fill:rgb(156,122,78);"/>
        <path d="M685.893,327.621C688.376,324.382 689.737,328.427 688.528,329.533C686.837,331.08 686.548,329.796 685.893,327.621Z" style="fill:rgb(155,121,83);"/>
        <path d="M364.518,137.455C368.141,140.931 362.604,140.664 362.269,139.636C361.63,137.673 362.508,137.723 364.518,137.455Z" style="fill:rgb(164,127,84);"/>
        <path d="M362.848,147.113C362.408,145.555 361.921,144.944 363.541,144.671C363.72,144.641 365.419,144.355 365.698,145.408C366.302,147.686 365.154,147.634 362.848,147.113Z" style="fill:rgb(159,125,88);"/>
        <path d="M364.538,151.302C365.674,152.311 366.471,152.352 365.537,153.526C364.779,154.477 362.868,154.119 362.544,153.478C361.669,151.755 362.687,151.831 364.538,151.302Z" style="fill:rgb(165,129,89);"/>
        <path d="M319.221,193.423C318.546,194.251 318.613,194.569 317.538,194.369C315.333,193.957 317.191,190.184 318.937,192.171C319.005,192.248 318.958,192.264 319.221,193.423Z" style="fill:rgb(66,56,41);"/>
        <path d="M407.501,125.466C403.213,123.334 407.174,122.747 407.382,122.797C409.082,123.205 408.151,123.838 407.501,125.466Z" style="fill:rgb(60,42,21);"/>
        <path d="M299.772,219.518C296.369,222.478 297.437,218.71 297.568,218.57C298.492,217.58 299.3,218.458 299.399,218.566C299.63,218.816 299.541,219.267 299.772,219.518Z" style="fill:rgb(71,49,28);"/>
        <path d="M338.849,308.486C339.271,307.979 340.19,308.35 340.336,308.632C341.056,310.018 338.578,310.83 338.338,309.542C338.204,308.823 338.794,308.552 338.849,308.486Z" style="fill:rgb(50,38,22);"/>
        <path d="M699.26,303.108C698.942,303.127 698.866,303.725 698.549,303.744C696.759,303.852 697.904,300.038 699.204,301.73C699.271,301.817 699.208,301.832 699.26,303.108Z" style="fill:rgb(58,41,19);"/>
    </g>
</svg>
